<svg width="33" height="21" viewBox="0 0 33 21" fill="none" xmlns="http://www.w3.org/2000/svg">
<path d="M0.68758 0H32.3125C32.692 0 33 0.313622 33 0.700022C33 1.08642 32.692 1.40004 32.3125 1.40004H0.687515C0.308018 1.40004 0 1.08642 0 0.700022C0 0.313622 0.308083 0 0.68758 0Z" fill="#A1A1A1"/>
<path d="M0.68758 9.79999H32.3125C32.692 9.79999 33 10.1136 33 10.5C33 10.8864 32.692 11.2 32.3125 11.2H0.687515C0.308018 11.2 0 10.8864 0 10.5C0 10.1136 0.308083 9.79999 0.68758 9.79999Z" fill="#A1A1A1"/>
<path d="M0.68758 19.6H32.3125C32.692 19.6 33 19.9136 33 20.3C33 20.6864 32.692 21 32.3125 21H0.687515C0.308018 21 0 20.6864 0 20.3C6.10352e-05 19.9136 0.308083 19.6 0.68758 19.6Z" fill="#A1A1A1"/>
</svg>
